<?xml version="1.0" encoding="utf-8"?>
<!-- Generator: Adobe Illustrator 28.0.0, SVG Export Plug-In . SVG Version: 6.00 Build 0)  -->
<svg version="1.1" id="Layer_1" xmlns="http://www.w3.org/2000/svg" xmlns:xlink="http://www.w3.org/1999/xlink" x="0px" y="0px"
	 viewBox="0 0 74.1 76.7" style="enable-background:new 0 0 74.1 76.7;" xml:space="preserve">
<style type="text/css">
	.st0{fill:#C0C0C0;}
	.st1{fill:#00A1ED;}
	.st2{fill:#FFFFFF;}
	.st3{fill:#009DE6;}
	.st4{fill:#AE0721;}
</style>
<path class="st0" d="M29.9,51L29.9,51l14.4-0.1l7.2-12.4H37.1L29.9,51z"/>
<path class="st1" d="M44.7,51.6H29.9v-0.6l-0.8-0.4l0.2-0.6h0.1l7.2-12.4h15.3l0.4,0.8l-0.2,0.4L44.7,51.6z M31.2,50.1h12.6
	l6.3-10.9H37.5L31.2,50.1z"/>
<path class="st2" d="M29.8,25.8L29.8,25.8l7.3,12.6l14.4,0l0.1-0.1l-7.2-12.5H29.8z"/>
<path class="st3" d="M36.6,39.2L28,24.2l2,0.9h14.7l7.7,13.3l-0.5,0.9L36.6,39.2z M31.1,26.6l6.4,11.1l12.7,0l-6.4-11.1L31.1,26.6z"
	/>
<path class="st4" d="M29.8,25.8l-7.2,12.5L29.9,51l7.2-12.5L29.8,25.8z"/>
<path class="st3" d="M29.8,52.6l-0.6-1.3l-7.5-13l8.1-14.1L38,38.4L29.8,52.6z M23.5,38.3l6.4,11.1l6.3-11l-6.4-11.1L23.5,38.3z"/>
<path class="st3" d="M24,64.2h13.6l6.8-11.7l6.3,11l-6.8,11.7H30.3L24,64.2z M30.3,51.6H43l-6.3,11H24L30.3,51.6z M16.3,50.9
	l6.3-10.9l6.3,11l-6.3,10.9L16.3,50.9z M45.7,51.6h13.6L66,39.9l6.3,11l-6.8,11.8H52L45.7,51.6z M1.8,50.9l6.8-11.8h12.7l-6.8,11.8
	l6.8,11.8H8.6L1.8,50.9z M52,39.1h12.7l-6.3,11H45.6L52,39.1z M23.5,38.3l6.8-11.7h13.6l6.8,11.8l-6.3,10.9L37.8,38l0,0l0,0
	l-1.3,0.8L43,50.1H30.3L23.5,38.3z M45.6,26.6h12.7l6.4,11H52L45.6,26.6z M16.2,25.8l6.3-11l6.3,11l-6.3,11L16.2,25.8z M1.8,25.8
	l6.8-11.8h12.7l-6.8,11.8l6.8,11.8H8.6L1.8,25.8z M23.9,14.1h12.7l6.3,11H30.3L23.9,14.1z M52,14.1h13.6l6.8,11.8l-6.3,11L59.2,25
	H45.6L52,14.1z M30.2,1.5h13.6l6.8,11.8l-6.3,11l-6.8-11.7H23.9L30.2,1.5z M29.4,0l-7.2,12.5H7.7L0,25.8l7.3,12.6L0.1,50.9l7.7,13.3
	h14.5l7.2,12.5h15.3L52,64.2h14.4l7.7-13.3l-7.2-12.5l0,0l0,0l7.2-12.5l-7.7-13.3H51.9L44.7,0H29.4z"/>
</svg>
