<?xml version="1.0" encoding="UTF-8"?>
<svg id="Layer_1" xmlns="http://www.w3.org/2000/svg" xmlns:xlink="http://www.w3.org/1999/xlink" viewBox="0 0 447.52 82.87">
  <defs>
    <style>
      .cls-1, .cls-2, .cls-3, .cls-4, .cls-5 {
        fill: none;
      }

      .cls-2 {
        stroke: #be222f;
        stroke-width: 2px;
      }

      .cls-2, .cls-3, .cls-4, .cls-5 {
        stroke-miterlimit: 10;
      }

      .cls-3 {
        opacity: .81;
      }

      .cls-3, .cls-4 {
        stroke: #29aae2;
      }

      .cls-5 {
        stroke: #000;
        stroke-width: .5px;
      }

      .cls-6 {
        fill: #29abe2;
      }

      .cls-7 {
        fill: #be202e;
      }

      .cls-8 {
        clip-path: url(#clippath);
      }
    </style>
    <clipPath id="clippath">
      <rect class="cls-1" x="1.67" y="-1.67" width="82.87" height="86.21" transform="translate(84.54 -1.67) rotate(90)"/>
    </clipPath>
  </defs>
  <g>
    <path class="cls-7" d="M119.84,5.7c-2.13-2.19-4.99-2.87-7.95-2.87h-8.93v32.13h8.93c2.96,0,5.82-.68,7.95-2.87,2.96-3.03,2.75-9.6,2.75-13.72s.21-9.65-2.75-12.68M121.82,34.07c-2.18,2.19-5.4,3.39-9.24,3.39h-12.41V.32h12.41c3.84,0,7.06,1.2,9.24,3.39,3.74,3.76,3.58,9.65,3.58,14.66s.16,11.95-3.58,15.7"/>
    <polygon class="cls-7" points="163.62 37.46 163.62 6.84 152.41 32.25 149.6 32.25 138.18 6.84 138.18 37.46 135.37 37.46 135.37 .32 138.18 .32 151.06 28.96 163.62 .32 166.43 .32 166.43 37.46 163.62 37.46"/>
    <path class="cls-7" d="M187.1,37.78c-5.51,0-8.93-1.51-12.31-4.9l1.97-1.98c3.32,3.34,6.02,4.38,10.49,4.38,5.82,0,9.5-2.82,9.5-7.67.11-1.95-.63-3.86-2.03-5.22-1.35-1.15-2.34-1.51-5.35-1.98l-4.31-.68c-2.41-.26-4.69-1.2-6.6-2.71-1.97-1.7-3.04-4.22-2.91-6.83C175.57,3.98,179.98.01,187.05.01c3.94-.16,7.77,1.29,10.65,4.02l-1.82,1.83c-2.39-2.36-5.65-3.6-8.98-3.44-5.35,0-8.57,2.97-8.57,7.67,0,2.14.62,3.76,1.92,4.85,1.61,1.23,3.51,2.02,5.51,2.3l4,.63c3.48.52,5.04,1.15,6.6,2.45,2.1,1.78,3.28,4.43,3.22,7.2,0,6.26-4.78,10.28-12.46,10.28"/>
    <polygon class="cls-7" points="208.34 37.46 208.34 .32 230.78 .32 230.78 2.83 211.14 2.83 211.14 17.49 227.87 17.49 227.87 19.99 211.14 19.99 211.14 34.96 230.78 34.96 230.78 37.46 208.34 37.46"/>
    <path d="M247.78,1.48c-.41-.4-.97-.61-1.54-.58h-1.7v6.39h1.7c.57.03,1.13-.18,1.54-.58.54-.57.52-1.74.52-2.71s.02-1.96-.52-2.53M248.36,7.32c-.53.5-1.25.76-1.97.73h-2.68V.15h2.68c.73-.03,1.44.23,1.97.73.81.82.77,2.03.77,3.13s.04,2.49-.77,3.31"/>
    <polygon points="251.21 8.05 251.21 .15 256.05 .15 256.05 .9 252.04 .9 252.04 3.69 255.46 3.69 255.46 4.44 252.04 4.44 252.04 7.29 256.05 7.29 256.05 8.05 251.21 8.05"/>
    <path d="M260.73.9h-2v3.14h2c.44.05.87-.09,1.19-.4.32-.3.49-.74.46-1.18.03-.44-.14-.87-.47-1.18-.32-.3-.76-.44-1.19-.39M260.81,4.8h-2.07v3.25h-.83V.15h2.91c.63-.06,1.26.17,1.72.61.46.44.71,1.07.69,1.71.02.64-.23,1.27-.69,1.71-.46.44-1.09.67-1.72.62"/>
    <path d="M266.61,1.36l-1.47,4.17h2.92l-1.45-4.17ZM268.92,8.05l-.63-1.79h-3.41l-.62,1.79h-.89l2.87-7.9h.7l2.86,7.9h-.89Z"/>
    <path d="M274.1.9h-2.08v2.89h2.08c.4.06.81-.07,1.11-.35.3-.28.46-.68.44-1.09.02-.41-.14-.81-.44-1.1-.3-.28-.71-.41-1.11-.36M275.67,8.05l-1.78-3.51h-1.88v3.51h-.83V.15h2.99c.6-.06,1.21.15,1.65.57.44.42.69,1.01.67,1.63.05,1.04-.68,1.95-1.7,2.12l1.85,3.58h-.97Z"/>
    <polygon points="280.78 .9 280.78 8.05 279.95 8.05 279.95 .9 277.69 .9 277.69 .15 283.04 .15 283.04 .9 280.78 .9"/>
    <polygon points="290.47 8.05 290.47 2.04 288.33 6.81 287.62 6.81 285.45 2.04 285.45 8.05 284.61 8.05 284.61 .15 285.45 .15 287.99 5.75 290.47 .15 291.31 .15 291.31 8.05 290.47 8.05"/>
    <polygon points="293.68 8.05 293.68 .15 298.53 .15 298.53 .9 294.51 .9 294.51 3.69 297.94 3.69 297.94 4.44 294.51 4.44 294.51 7.29 298.53 7.29 298.53 8.05 293.68 8.05"/>
    <polygon points="305.35 8.05 301.2 1.71 301.2 8.05 300.37 8.05 300.37 .15 301.16 .15 305.31 6.46 305.31 .15 306.14 .15 306.14 8.05 305.35 8.05"/>
    <polygon points="310.8 .9 310.8 8.05 309.97 8.05 309.97 .9 307.71 .9 307.71 .15 313.06 .15 313.06 .9 310.8 .9"/>
    <path d="M321.26,1.4c-.75-.75-1.95-.75-2.7,0-.49.51-.55,1.04-.55,2.7s.06,2.19.55,2.7c.36.36.84.57,1.35.57s.99-.2,1.35-.57c.49-.51.55-1.04.55-2.7s-.06-2.19-.55-2.7M321.91,7.29c-1.11,1.1-2.88,1.1-3.99,0-.74-.74-.74-1.52-.74-3.2s0-2.45.74-3.2c1.11-1.1,2.88-1.1,3.99,0,.74.74.74,1.52.74,3.2s0,2.45-.74,3.2"/>
    <polygon points="325.55 .9 325.55 3.81 328.97 3.81 328.97 4.56 325.55 4.56 325.55 8.05 324.72 8.05 324.72 .15 329.56 .15 329.56 .9 325.55 .9"/>
    <polygon points="249.57 22.65 249.57 16.65 247.43 21.41 246.72 21.41 244.54 16.65 244.54 22.65 243.71 22.65 243.71 14.75 244.54 14.75 247.09 20.35 249.57 14.75 250.4 14.75 250.4 22.65 249.57 22.65"/>
    <path d="M255.01,15.96l-1.47,4.17h2.92l-1.45-4.17ZM257.33,22.65l-.63-1.79h-3.41l-.63,1.79h-.89l2.87-7.9h.7l2.86,7.9h-.89Z"/>
    <polygon points="261.22 15.5 261.22 22.65 260.39 22.65 260.39 15.51 258.13 15.51 258.13 14.75 263.48 14.75 263.48 15.5 261.22 15.5"/>
    <polygon points="265.05 22.65 265.05 14.75 269.9 14.75 269.9 15.5 265.89 15.5 265.89 18.29 269.31 18.29 269.31 19.04 265.89 19.04 265.89 21.89 269.9 21.89 269.9 22.65 265.05 22.65"/>
    <path d="M274.66,15.5h-2.08v2.89h2.08c.54.05,1.07-.21,1.36-.68.29-.47.29-1.06,0-1.53s-.81-.73-1.36-.68M276.23,22.65l-1.78-3.51h-1.88v3.51h-.83v-7.9h2.99c.6-.06,1.21.15,1.65.57.44.42.69,1.01.67,1.63.05,1.04-.68,1.95-1.7,2.12l1.85,3.58h-.98Z"/>
    <rect x="279.05" y="14.75" width=".83" height="7.9"/>
    <path d="M284.49,15.96l-1.47,4.17h2.92l-1.45-4.17ZM286.81,22.65l-.62-1.79h-3.41l-.62,1.79h-.89l2.87-7.9h.7l2.86,7.9h-.89Z"/>
    <polygon points="289.07 22.65 289.07 14.75 289.9 14.75 289.9 21.89 293.9 21.89 293.9 22.65 289.07 22.65"/>
    <path d="M297.47,22.72c-1,.07-1.98-.31-2.68-1.04l.57-.58c.55.6,1.33.92,2.13.87,1.14,0,1.84-.54,1.84-1.46.02-.37-.11-.73-.37-.99-.29-.24-.65-.37-1.02-.38l-.91-.14c-.52-.06-1.02-.27-1.44-.6-.41-.38-.62-.92-.59-1.48,0-1.34.95-2.23,2.5-2.23.86-.05,1.7.27,2.33.87l-.54.54c-.49-.47-1.15-.71-1.82-.68-.42-.06-.84.07-1.16.35-.32.28-.5.69-.49,1.11-.02.34.1.68.35.91.31.23.67.38,1.05.43l.86.13c.52.03,1.02.22,1.43.56.44.39.68.97.66,1.56,0,1.39-1.07,2.24-2.7,2.24"/>
    <path d="M306.87,22.72c-1,.07-1.98-.31-2.68-1.04l.57-.58c.55.6,1.33.92,2.13.87,1.14,0,1.84-.54,1.84-1.46.02-.37-.11-.73-.37-.99-.29-.24-.65-.37-1.02-.38l-.91-.14c-.52-.06-1.02-.27-1.44-.6-.41-.38-.62-.92-.59-1.48,0-1.34.95-2.23,2.5-2.23.86-.05,1.7.27,2.33.87l-.54.54c-.49-.47-1.15-.71-1.82-.68-.42-.06-.84.07-1.16.35-.32.28-.49.69-.49,1.11-.02.34.11.68.35.91.31.23.67.38,1.05.43l.86.13c.52.03,1.02.22,1.43.56.44.39.68.97.66,1.56,0,1.39-1.07,2.24-2.7,2.24"/>
    <path d="M313.86,22.72c-.75,0-1.47-.29-2-.82-.74-.74-.74-1.52-.74-3.2s0-2.45.74-3.2c.53-.53,1.25-.83,2-.82,1.37-.05,2.55.97,2.71,2.35h-.86c-.13-.93-.93-1.61-1.85-1.6-.51,0-.99.19-1.35.55-.49.51-.55,1.05-.55,2.71s.05,2.2.55,2.71c.51.5,1.25.68,1.92.46.68-.22,1.18-.8,1.3-1.51h.83c-.16,1.38-1.34,2.4-2.71,2.35"/>
    <rect x="318.53" y="14.75" width=".83" height="7.9"/>
    <polygon points="321.73 22.65 321.73 14.75 326.58 14.75 326.58 15.5 322.56 15.5 322.56 18.29 325.99 18.29 325.99 19.04 322.56 19.04 322.56 21.89 326.58 21.89 326.58 22.65 321.73 22.65"/>
    <polygon points="333.4 22.65 329.26 16.31 329.26 22.65 328.42 22.65 328.42 14.75 329.21 14.75 333.36 21.06 333.36 14.75 334.19 14.75 334.19 22.65 333.4 22.65"/>
    <path d="M339,22.72c-.75,0-1.47-.29-2-.82-.73-.74-.73-1.52-.73-3.2s0-2.45.73-3.2c.53-.54,1.25-.83,2-.82,1.37-.05,2.55.97,2.71,2.35h-.86c-.13-.93-.93-1.61-1.85-1.6-.51,0-.99.19-1.35.55-.49.51-.55,1.05-.55,2.71s.06,2.2.55,2.71c.51.5,1.25.68,1.92.46.68-.22,1.18-.8,1.3-1.51h.83c-.16,1.38-1.34,2.4-2.71,2.35"/>
    <polygon points="343.66 22.65 343.66 14.75 348.51 14.75 348.51 15.5 344.5 15.5 344.5 18.29 347.92 18.29 347.92 19.04 344.5 19.04 344.5 21.89 348.51 21.89 348.51 22.65 343.66 22.65"/>
    <path d="M246,30c-.24,0-.48.08-.65.26-.17.18-.26.41-.25.66,0,.37.19.67.7,1.3.13-.09.42-.29.42-.29.36-.26.7-.53.7-.99,0-.25-.09-.49-.26-.67-.17-.18-.41-.28-.66-.27M245.58,33.19c-.67.47-1.34.91-1.34,1.81,0,.44.16.86.48,1.16.31.3.74.45,1.17.42.69,0,1.35-.27,1.84-.77l-2.15-2.62ZM248.9,37.25l-.7-.87c-.62.61-1.44.94-2.3.93-.64.07-1.28-.14-1.75-.58-.47-.44-.73-1.07-.72-1.71,0-1.19.83-1.79,1.69-2.36-.47-.45-.77-1.06-.85-1.72.07-.91.82-1.61,1.72-1.6.9,0,1.64.71,1.71,1.61-.03.59-.36,1.12-.87,1.41,0,0-.4.27-.58.4l2,2.43c.34-.54.49-1.17.44-1.81h.79c.05.87-.21,1.72-.72,2.42l1.2,1.45h-1.04Z"/>
    <polygon points="254.77 37.25 254.77 29.35 259.62 29.35 259.62 30.1 255.61 30.1 255.61 32.89 259.03 32.89 259.03 33.64 255.61 33.64 255.61 36.5 259.62 36.5 259.62 37.25 254.77 37.25"/>
    <polygon points="266.45 37.25 262.3 30.91 262.3 37.25 261.46 37.25 261.46 29.35 262.25 29.35 266.4 35.66 266.4 29.35 267.23 29.35 267.23 37.25 266.45 37.25"/>
    <path d="M274.13,36.41c-.53.57-1.25.89-2.02.91-.77.02-1.51-.28-2.06-.82-.73-.74-.73-1.52-.73-3.2s0-2.45.73-3.2c.53-.54,1.25-.83,2-.82,1.38-.05,2.56.98,2.73,2.36h-.83c-.12-.71-.63-1.3-1.31-1.52-.68-.22-1.43-.04-1.94.47-.49.51-.55,1.04-.55,2.7s.06,2.2.55,2.71c.36.36.84.56,1.35.56.57,0,1.11-.24,1.48-.68.32-.41.47-.92.44-1.43v-.6h-1.92v-.74h2.75v1.25c.06.75-.18,1.48-.67,2.04"/>
    <rect x="276.85" y="29.35" width=".83" height="7.9"/>
    <polygon points="285.03 37.25 280.88 30.91 280.88 37.25 280.05 37.25 280.05 29.35 280.84 29.35 284.98 35.66 284.98 29.35 285.82 29.35 285.82 37.25 285.03 37.25"/>
    <polygon points="288.19 37.25 288.19 29.35 293.04 29.35 293.04 30.1 289.02 30.1 289.02 32.89 292.45 32.89 292.45 33.64 289.02 33.64 289.02 36.5 293.04 36.5 293.04 37.25 288.19 37.25"/>
    <polygon points="294.88 37.25 294.88 29.35 299.73 29.35 299.73 30.1 295.72 30.1 295.72 32.89 299.14 32.89 299.14 33.64 295.72 33.64 295.72 36.5 299.73 36.5 299.73 37.25 294.88 37.25"/>
    <path d="M304.49,30.1h-2.08v2.89h2.08c.54.05,1.07-.21,1.36-.68.29-.47.29-1.06,0-1.53-.29-.47-.81-.73-1.36-.68M306.06,37.25l-1.78-3.51h-1.88v3.51h-.83v-7.9h2.99c.6-.06,1.21.15,1.65.57.44.42.69,1.01.67,1.63.05,1.04-.68,1.95-1.7,2.12l1.85,3.58h-.97Z"/>
    <rect x="308.88" y="29.35" width=".83" height="7.9"/>
    <polygon points="317.07 37.25 312.92 30.91 312.92 37.25 312.09 37.25 312.09 29.35 312.88 29.35 317.02 35.66 317.02 29.35 317.86 29.35 317.86 37.25 317.07 37.25"/>
    <path d="M324.75,36.41c-.53.57-1.25.89-2.02.91-.77.02-1.51-.28-2.06-.82-.74-.74-.74-1.52-.74-3.2s0-2.45.74-3.2c.53-.54,1.25-.83,2-.82,1.38-.05,2.56.98,2.73,2.36h-.83c-.12-.71-.63-1.3-1.31-1.52-.68-.22-1.43-.04-1.94.47-.49.51-.55,1.04-.55,2.7s.05,2.2.55,2.71c.36.36.84.56,1.35.56.57,0,1.11-.24,1.48-.68.32-.41.47-.92.44-1.43v-.6h-1.92v-.74h2.75v1.25c.06.75-.18,1.48-.67,2.04"/>
    <g>
      <path class="cls-6" d="M100.18,45.07h10.24c4.61,0,8,.78,10.16,2.35,2.16,1.57,3.24,3.93,3.24,7.1,0,2.16-.66,3.96-1.98,5.4-1.32,1.44-3.25,2.36-5.78,2.77v.15c2.98.44,5.17,1.38,6.58,2.82,1.4,1.44,2.11,3.44,2.11,6.01,0,3.44-1.14,6.09-3.42,7.94-2.28,1.86-5.52,2.78-9.7,2.78h-11.44v-37.34ZM102.78,61.7h8.22c3.51,0,6.06-.58,7.65-1.75,1.59-1.17,2.39-2.99,2.39-5.48s-.9-4.29-2.69-5.41-4.47-1.69-8.03-1.69h-7.53v14.33ZM102.78,64v16.12h8.79c6.91,0,10.37-2.81,10.37-8.43,0-5.12-3.64-7.69-10.93-7.69h-8.22Z"/>
      <path class="cls-6" d="M135.1,66.14v16.27h-2.6v-37.34h8.89c4.63,0,8.05.86,10.27,2.57s3.32,4.29,3.32,7.73c0,2.5-.66,4.61-1.98,6.33-1.32,1.72-3.32,2.95-6.01,3.7l10.14,17.01h-3.12l-9.63-16.27h-9.27ZM135.1,63.9h7.13c3.15,0,5.59-.7,7.33-2.11,1.74-1.4,2.6-3.48,2.6-6.22s-.85-4.91-2.55-6.21-4.48-1.94-8.33-1.94h-6.18v16.47Z"/>
      <path class="cls-6" d="M249.86,82.41h-3.19l-14.33-19.72-4.98,4.39v15.32h-2.6v-37.34h2.6v19.41l4.14-4.14,14.63-15.27h3.32l-15.3,15.78,15.71,21.56Z"/>
      <path class="cls-6" d="M285.28,66.14v16.27h-2.6v-37.34h8.89c4.63,0,8.05.86,10.27,2.57s3.32,4.29,3.32,7.73c0,2.5-.66,4.61-1.98,6.33-1.32,1.72-3.32,2.95-6.01,3.7l10.14,17.01h-3.12l-9.63-16.27h-9.27ZM285.28,63.9h7.13c3.15,0,5.59-.7,7.33-2.11,1.74-1.4,2.6-3.48,2.6-6.22s-.85-4.91-2.55-6.21-4.48-1.94-8.33-1.94h-6.18v16.47Z"/>
      <path class="cls-6" d="M364.34,55.8c0,3.61-1.23,6.38-3.68,8.3-2.45,1.92-5.93,2.89-10.42,2.89h-5.77v15.43h-2.6v-37.34h9.14c8.89,0,13.33,3.58,13.33,10.73ZM344.47,64.74h5.13c4.21,0,7.24-.69,9.12-2.08,1.87-1.39,2.81-3.64,2.81-6.75,0-2.88-.89-5.01-2.66-6.4-1.77-1.39-4.51-2.08-8.22-2.08h-6.18v17.32Z"/>
      <path class="cls-6" d="M323.31,82.58c-5.53,0-8.97-1.51-12.36-4.9l1.98-1.98c3.34,3.34,6.05,4.38,10.54,4.38,5.84,0,9.55-2.82,9.55-7.67,0-2.19-.68-4.02-2.03-5.22-1.36-1.15-2.35-1.51-5.37-1.98l-4.33-.68c-2.82-.42-5.06-1.36-6.62-2.71-1.98-1.67-2.92-3.96-2.92-6.83,0-6.21,4.43-10.17,11.53-10.17,4.59,0,7.51,1.25,10.69,4.02l-1.82,1.83c-2.3-2.03-4.59-3.44-9.02-3.44-5.37,0-8.61,2.97-8.61,7.67,0,2.14.63,3.76,1.93,4.85,1.31,1.1,3.44,1.98,5.53,2.3l4.02.63c3.49.52,5.06,1.15,6.62,2.45,2.03,1.67,3.23,4.23,3.23,7.2,0,6.26-4.8,10.28-12.52,10.28"/>
      <polygon class="cls-6" points="161.75 82.27 161.75 45.13 184.28 45.13 184.28 47.63 164.56 47.63 164.56 62.29 181.36 62.29 181.36 64.79 164.56 64.79 164.56 79.76 184.28 79.76 184.28 82.27 161.75 82.27"/>
      <polygon class="cls-6" points="254.65 82.27 254.65 45.13 277.19 45.13 277.19 47.63 257.47 47.63 257.47 62.29 274.27 62.29 274.27 64.79 257.47 64.79 257.47 79.76 277.19 79.76 277.19 82.27 254.65 82.27"/>
      <polygon class="cls-6" points="423.37 82.27 423.37 45.13 445.9 45.13 445.9 47.63 426.19 47.63 426.19 62.29 442.98 62.29 442.98 64.79 426.19 64.79 426.19 79.76 445.9 79.76 445.9 82.27 423.37 82.27"/>
      <path class="cls-6" d="M414.82,55.75h2.42c-.76-6.58-6.38-11.46-12.93-11.23-3.58-.05-7.02,1.36-9.55,3.92-3.5,3.55-3.5,7.25-3.5,15.25s0,11.7,3.5,15.25c2.54,2.55,5.98,3.96,9.55,3.92,6.54.23,12.16-4.65,12.93-11.23h-2.42c-.74,5.15-5.28,9.01-10.42,8.83h-.06s-.06,0-.06,0c-2.91.01-5.76-1.13-7.82-3.2-2.69-2.73-2.81-5.24-2.81-13.56s.12-10.84,2.81-13.56c2.06-2.08,4.93-3.25,7.82-3.21h.06s.06,0,.06,0c5.17-.18,9.68,3.67,10.42,8.83Z"/>
      <path class="cls-6" d="M386.74,82.41l-2.94-8.48h-18.33l-2.97,8.48h-2.94l13.64-37.49h2.94l13.57,37.49h-2.97ZM374.67,47.63l-8.18,23.37h16.29l-8.11-23.37Z"/>
      <path class="cls-6" d="M217,82.41l-2.94-8.48h-18.33l-2.97,8.48h-2.94l13.64-37.49h2.94l13.57,37.49h-2.97ZM204.93,47.63l-8.18,23.37h16.29l-8.11-23.37Z"/>
    </g>
  </g>
  <g>
    <g class="cls-8">
      <g>
        <polygon class="cls-3" points="44.25 4.95 42.67 26.79 57.13 24.85 57.13 20.3 58.7 17.71 61.33 15.87 63.7 15.87 65.27 18.36 68.69 18.79 74.99 13.17 74.99 10.14 78.67 7.33 74.21 2.35 69.48 -2.4 67.9 -5.22 44.25 4.95"/>
        <polygon class="cls-3" points="40.57 -22.09 36.11 -15.17 36.11 -12.57 40.57 -8.24 40.57 -3.49 40.57 .41 44.25 4.95 67.9 -5.22 65.8 -12.79 60.67 -20.36 57.91 -23.82 50.03 -24.9 44.51 -24.9 40.57 -22.09"/>
        <polygon class="cls-3" points="23.06 3.94 21.22 7.18 24.37 7.18 32.51 10.43 28.84 5.89 28.84 -2.77 25.68 -2.77 23.06 3.94"/>
        <polygon class="cls-3" points="24.37 -7.09 21.22 -7.09 17.8 -7.09 15.96 -1.25 17.54 2.86 21.22 7.18 25.68 -2.77 28.84 -2.77 24.37 -7.09"/>
        <polygon class="cls-3" points="4.92 .26 -5.59 1.78 -12.94 3.83 -12.94 9.13 -7.16 16.27 -1.64 19.08 4.92 19.08 7.81 19.08 14.12 10.43 15.96 6.32 4.92 .26"/>
        <polygon class="cls-3" points="8.87 25.14 6.5 21.67 7.81 19.08 14.12 10.43 15.96 6.32 21.22 7.18 24.37 7.18 32.51 10.43 30.94 32.27 28.84 37.9 26.87 41.57 21.22 39.41 16.75 41.57 14.65 35.08 10.44 34 12.02 29.46 8.87 25.14"/>
        <polygon class="cls-3" points="9.39 38.33 11.49 41.57 16.75 41.57 14.65 35.08 10.44 34 9.39 38.33"/>
        <polygon class="cls-3" points="-3.75 23.95 -1.64 19.08 7.81 19.08 6.5 21.67 12.02 29.46 10.44 34 9.39 38.33 11.49 41.57 9.39 43.88 9.39 49.36 13.07 54.33 6.5 56.71 -1.91 50.66 -10.32 53.25 -12.94 49.14 -14.52 45.03 -10.84 37.79 -14.52 32.27 -18.99 30.54 -17.67 27.08 -9.53 23.95 -3.75 23.95"/>
        <polygon class="cls-3" points="19.51 56.71 13.07 54.33 9.39 49.36 9.39 43.88 11.49 41.57 16.75 41.57 21.22 39.41 26.87 41.57 24.37 51.74 19.51 56.71"/>
        <polygon class="cls-3" points="22.4 69.69 19.51 56.71 24.37 51.74 28.84 53.68 35.4 58.23 38.56 62.77 42.24 65.8 48.94 68.82 47.23 83.75 43.81 83.75 36.19 81.58 26.87 78.99 22.4 69.69"/>
        <polygon class="cls-3" points="47.49 34 48.94 39.41 56.16 42.44 54.85 50.01 51.83 53.04 48.94 59.52 48.94 68.82 42.24 65.8 38.56 62.77 35.4 58.23 28.84 53.68 24.37 51.74 26.87 41.57 28.84 37.9 30.94 32.27 45.39 30.33 47.49 34"/>
        <polygon class="cls-4" points="70.79 -11.49 76.83 -12.57 78.67 -8.24 78.67 -2.84 79.72 4.19 78.67 7.33 69.48 -2.4 67.9 -5.22 70.79 -11.49"/>
        <polygon class="cls-4" points="65.27 18.36 62.12 21.17 60.67 24.85 57.13 24.85 57.13 20.3 58.7 17.71 61.33 15.87 63.7 15.87 65.27 18.36"/>
        <polygon class="cls-4" points="76.31 47.34 69.74 46.26 66.59 44.53 67.9 36.96 76.31 31.12 79.72 32.42 79.72 42.58 76.31 47.34"/>
        <polygon class="cls-4" points="68.69 18.79 73.16 24.85 76.31 31.12 67.9 36.96 60.67 33.93 59.23 28.52 57.13 24.85 60.67 24.85 62.12 21.17 65.27 18.36 68.69 18.79"/>
        <polygon class="cls-4" points="82.61 10.79 78.67 12.52 74.99 13.17 74.99 10.14 78.67 7.33 82.61 10.79"/>
        <polygon class="cls-4" points="90.76 18.36 82.61 10.79 78.67 12.52 74.99 13.17 68.69 18.79 76.31 31.12 79.72 32.42 86.56 36.96 93.13 39.23 96.54 36.96 99.43 39.23 102.85 36.09 107.05 28.52 107.05 24.85 102.85 20.36 97.59 18.47 90.76 18.36"/>
        <polygon class="cls-4" points="83.93 51.23 79.72 51.23 76.31 47.34 79.72 42.58 79.72 32.42 86.56 36.96 93.13 39.23 96.54 36.96 99.43 39.23 103.64 38.4 103.64 47.34 98.64 46.26 96.8 49.07 93.91 51.23 89.97 51.23 83.93 51.23"/>
        <polygon class="cls-4" points="100.48 62.26 93.91 51.23 96.8 49.07 98.64 46.26 103.64 47.34 111.78 51.23 122.29 55.78 122.29 60.1 124.66 65.94 127.28 65.94 115.46 70.91 109.15 70.91 103.64 68.1 100.48 62.26"/>
        <polygon class="cls-4" points="79.72 51.23 79.72 59.67 84.19 59.67 92.07 74.59 97.07 78.27 103.64 73.29 109.15 70.91 103.64 68.1 93.91 51.23 79.72 51.23"/>
        <polygon class="cls-4" points="89.97 78.27 82.61 74.16 88.75 75.46 92.07 74.59 97.07 78.27 95.23 79.42 89.97 78.27"/>
        <polygon class="cls-4" points="81.39 63.35 80.6 67.31 81.91 71.28 82.61 74.16 88.75 75.46 92.07 74.59 84.19 59.67 79.72 59.67 81.39 63.35"/>
        <polygon class="cls-4" points="74.29 61.4 77.18 60.39 79.72 59.67 81.39 63.35 80.6 67.31 82.61 74.16 79.72 71.64 76.92 71.35 74.99 69.26 74.29 65.8 74.29 61.4"/>
        <polygon class="cls-4" points="74.73 70.91 73.16 72.07 73.94 73.73 76.31 73.73 76.92 71.35 74.73 70.91"/>
        <polygon class="cls-4" points="67.29 66.91 70.88 70.91 73.16 72.07 74.73 70.91 76.92 71.35 74.99 69.26 74.29 65.8 74.29 61.4 71.32 59.67 67.9 61.83 66.59 63.35 67.29 66.91"/>
        <polygon class="cls-4" points="60.67 54.04 65.97 56.35 71.32 59.67 74.29 61.4 79.72 59.67 79.72 51.23 76.31 47.34 69.74 46.26 66.59 44.53 63.56 47.56 60.67 54.04"/>
        <polygon class="cls-4" points="66.59 63.35 60.67 63.35 60.67 54.04 65.97 56.35 71.32 59.67 66.59 63.35"/>
        <polygon class="cls-4" points="59.58 84.18 58.97 78.27 60.67 63.35 66.59 63.35 67.29 66.91 70.88 70.91 73.16 72.07 73.94 73.73 70.2 85.41 59.58 84.18"/>
        <polygon class="cls-4" points="76.92 86.85 70.2 85.41 73.94 73.73 76.31 73.73 76.92 71.35 79.72 71.64 82.61 74.16 89.97 78.27 89.27 82.52 76.92 86.85"/>
        <polygon class="cls-4" points="15.96 72.39 6.5 56.71 13.07 54.33 19.51 56.71 22.4 69.69 15.96 72.39"/>
        <polygon class="cls-4" points="18.13 86.7 14.45 77.8 15.96 72.39 22.4 69.69 26.87 78.99 30.94 87.42 22.4 90.89 18.13 86.7"/>
        <polygon class="cls-4" points="42.15 110.06 39.52 118.14 35.32 109.49 32.51 100.55 22.4 90.89 30.94 87.42 26.87 78.99 43.81 83.75 47.23 83.75 47.84 89.66 42.15 110.06"/>
        <polygon class="cls-4" points="18.13 86.7 2.38 80.94 -1.64 78.99 -4.62 74.16 -7.6 68.82 -11.63 66.23 -16.18 64.07 -12.94 54.33 -10.32 53.25 -1.91 50.66 6.5 56.71 15.96 72.39 14.45 77.8 18.13 86.7"/>
        <polyline class="cls-2" points="36.11 -12.57 40.57 -8.24 40.57 .41 44.25 4.95 42.67 26.79 57.13 24.85 59.23 28.52 60.67 33.93 67.9 36.96 66.59 44.53 63.56 47.56 60.67 54.04 60.67 63.35 58.97 78.27 59.58 84.18"/>
        <polyline class="cls-2" points="24.37 -6.55 28.84 -2.22 28.84 6.43 32.51 10.97 30.94 32.81 45.39 30.87 47.49 34.54 48.94 39.95 56.16 42.98 54.85 50.55 51.83 53.58 48.94 60.06 48.94 69.36 47.23 84.29 47.84 90.2"/>
      </g>
    </g>
    <rect class="cls-5" x="1.67" y="-1.67" width="82.87" height="86.21" transform="translate(84.54 -1.67) rotate(90)"/>
  </g>
</svg>